<?xml version="1.0" encoding="UTF-8" standalone="no"?>
<!DOCTYPE svg PUBLIC "-//W3C//DTD SVG 1.1//EN"
 "http://www.w3.org/Graphics/SVG/1.1/DTD/svg11.dtd">
<!-- Generated by graphviz version 5.0.1 (20220820.1526)
 -->
<!-- Title: Probando el texto Pages: 1 -->
<svg width="1344pt" height="201pt"
 viewBox="0.00 0.00 1344.00 201.00" xmlns="http://www.w3.org/2000/svg" xmlns:xlink="http://www.w3.org/1999/xlink">
<g id="graph0" class="graph" transform="scale(1 1) rotate(0) translate(4 197)">
<title>Probando el texto</title>
<polygon fill="white" stroke="none" points="-4,4 -4,-197 1340,-197 1340,4 -4,4"/>
<!-- &quot;Suma&quot;0padre1 -->
<g id="node1" class="node">
<title>&quot;Suma&quot;0padre1</title>
<polygon fill="#ff0000" stroke="black" points="50,-146.5 50,-192.5 110,-192.5 110,-146.5 50,-146.5"/>
<text text-anchor="middle" x="80" y="-177.3" font-family="Times New Roman,serif" font-size="14.00">&quot;Suma&quot;</text>
<polyline fill="none" stroke="black" points="50,-169.5 110,-169.5"/>
<text text-anchor="middle" x="80" y="-154.3" font-family="Times New Roman,serif" font-size="14.00">10.0</text>
</g>
<!-- 6.5&#45;0 -->
<g id="node2" class="node">
<title>6.5&#45;0</title>
<polygon fill="lightgrey" stroke="black" points="0,-73.5 0,-109.5 54,-109.5 54,-73.5 0,-73.5"/>
<text text-anchor="middle" x="27" y="-87.8" font-family="Times New Roman,serif" font-size="14.00">6.5</text>
</g>
<!-- &quot;Suma&quot;0padre1&#45;&gt;6.5&#45;0 -->
<g id="edge1" class="edge">
<title>&quot;Suma&quot;0padre1&#45;&gt;6.5&#45;0</title>
<path fill="none" stroke="black" d="M64.38,-146.11C58.28,-137.35 51.23,-127.25 44.92,-118.2"/>
<polygon fill="black" stroke="black" points="47.73,-116.11 39.14,-109.91 41.99,-120.12 47.73,-116.11"/>
</g>
<!-- 3.5&#45;0 -->
<g id="node3" class="node">
<title>3.5&#45;0</title>
<polygon fill="lightgrey" stroke="black" points="72,-73.5 72,-109.5 126,-109.5 126,-73.5 72,-73.5"/>
<text text-anchor="middle" x="99" y="-87.8" font-family="Times New Roman,serif" font-size="14.00">3.5</text>
</g>
<!-- &quot;Suma&quot;0padre1&#45;&gt;3.5&#45;0 -->
<g id="edge2" class="edge">
<title>&quot;Suma&quot;0padre1&#45;&gt;3.5&#45;0</title>
<path fill="none" stroke="black" d="M85.6,-146.11C87.65,-137.89 90,-128.49 92.15,-119.89"/>
<polygon fill="black" stroke="black" points="95.62,-120.46 94.65,-109.91 88.83,-118.76 95.62,-120.46"/>
</g>
<!-- &quot;Resta&quot;1padre1 -->
<g id="node4" class="node">
<title>&quot;Resta&quot;1padre1</title>
<polygon fill="#ff0000" stroke="black" points="162,-146.5 162,-192.5 222,-192.5 222,-146.5 162,-146.5"/>
<text text-anchor="middle" x="192" y="-177.3" font-family="Times New Roman,serif" font-size="14.00">&quot;Resta&quot;</text>
<polyline fill="none" stroke="black" points="162,-169.5 222,-169.5"/>
<text text-anchor="middle" x="192" y="-154.3" font-family="Times New Roman,serif" font-size="14.00">30.0</text>
</g>
<!-- 60.0&#45;1 -->
<g id="node5" class="node">
<title>60.0&#45;1</title>
<polygon fill="lightgrey" stroke="black" points="147,-73.5 147,-109.5 201,-109.5 201,-73.5 147,-73.5"/>
<text text-anchor="middle" x="174" y="-87.8" font-family="Times New Roman,serif" font-size="14.00">60.0</text>
</g>
<!-- &quot;Resta&quot;1padre1&#45;&gt;60.0&#45;1 -->
<g id="edge3" class="edge">
<title>&quot;Resta&quot;1padre1&#45;&gt;60.0&#45;1</title>
<path fill="none" stroke="black" d="M186.7,-146.11C184.75,-137.89 182.52,-128.49 180.49,-119.89"/>
<polygon fill="black" stroke="black" points="183.83,-118.84 178.12,-109.91 177.02,-120.45 183.83,-118.84"/>
</g>
<!-- 30.0&#45;1 -->
<g id="node6" class="node">
<title>30.0&#45;1</title>
<polygon fill="lightgrey" stroke="black" points="219,-73.5 219,-109.5 273,-109.5 273,-73.5 219,-73.5"/>
<text text-anchor="middle" x="246" y="-87.8" font-family="Times New Roman,serif" font-size="14.00">30.0</text>
</g>
<!-- &quot;Resta&quot;1padre1&#45;&gt;30.0&#45;1 -->
<g id="edge4" class="edge">
<title>&quot;Resta&quot;1padre1&#45;&gt;30.0&#45;1</title>
<path fill="none" stroke="black" d="M207.91,-146.11C214.13,-137.35 221.31,-127.25 227.74,-118.2"/>
<polygon fill="black" stroke="black" points="230.69,-120.09 233.63,-109.91 224.98,-116.04 230.69,-120.09"/>
</g>
<!-- &quot;Resta&quot;2padre1 -->
<g id="node7" class="node">
<title>&quot;Resta&quot;2padre1</title>
<polygon fill="#ff0000" stroke="black" points="317,-146.5 317,-192.5 377,-192.5 377,-146.5 317,-146.5"/>
<text text-anchor="middle" x="347" y="-177.3" font-family="Times New Roman,serif" font-size="14.00">&quot;Resta&quot;</text>
<polyline fill="none" stroke="black" points="317,-169.5 377,-169.5"/>
<text text-anchor="middle" x="347" y="-154.3" font-family="Times New Roman,serif" font-size="14.00">20.0</text>
</g>
<!-- 60.0&#45;2 -->
<g id="node8" class="node">
<title>60.0&#45;2</title>
<polygon fill="lightgrey" stroke="black" points="291,-73.5 291,-109.5 345,-109.5 345,-73.5 291,-73.5"/>
<text text-anchor="middle" x="318" y="-87.8" font-family="Times New Roman,serif" font-size="14.00">60.0</text>
</g>
<!-- &quot;Resta&quot;2padre1&#45;&gt;60.0&#45;2 -->
<g id="edge5" class="edge">
<title>&quot;Resta&quot;2padre1&#45;&gt;60.0&#45;2</title>
<path fill="none" stroke="black" d="M338.46,-146.11C335.25,-137.71 331.58,-128.08 328.23,-119.32"/>
<polygon fill="black" stroke="black" points="331.48,-118.01 324.64,-109.91 324.94,-120.5 331.48,-118.01"/>
</g>
<!-- 40.0&#45;2 -->
<g id="node9" class="node">
<title>40.0&#45;2</title>
<polygon fill="lightgrey" stroke="black" points="363,-73.5 363,-109.5 417,-109.5 417,-73.5 363,-73.5"/>
<text text-anchor="middle" x="390" y="-87.8" font-family="Times New Roman,serif" font-size="14.00">40.0</text>
</g>
<!-- &quot;Resta&quot;2padre1&#45;&gt;40.0&#45;2 -->
<g id="edge6" class="edge">
<title>&quot;Resta&quot;2padre1&#45;&gt;40.0&#45;2</title>
<path fill="none" stroke="black" d="M359.67,-146.11C364.52,-137.53 370.1,-127.67 375.14,-118.76"/>
<polygon fill="black" stroke="black" points="378.27,-120.34 380.15,-109.91 372.18,-116.89 378.27,-120.34"/>
</g>
<!-- &quot;Division&quot;3padre1 -->
<g id="node10" class="node">
<title>&quot;Division&quot;3padre1</title>
<polygon fill="#ff0000" stroke="black" points="461,-146.5 461,-192.5 535,-192.5 535,-146.5 461,-146.5"/>
<text text-anchor="middle" x="498" y="-177.3" font-family="Times New Roman,serif" font-size="14.00">&quot;Division&quot;</text>
<polyline fill="none" stroke="black" points="461,-169.5 535,-169.5"/>
<text text-anchor="middle" x="498" y="-154.3" font-family="Times New Roman,serif" font-size="14.00">3.0</text>
</g>
<!-- 60.0&#45;3 -->
<g id="node11" class="node">
<title>60.0&#45;3</title>
<polygon fill="lightgrey" stroke="black" points="435,-73.5 435,-109.5 489,-109.5 489,-73.5 435,-73.5"/>
<text text-anchor="middle" x="462" y="-87.8" font-family="Times New Roman,serif" font-size="14.00">60.0</text>
</g>
<!-- &quot;Division&quot;3padre1&#45;&gt;60.0&#45;3 -->
<g id="edge7" class="edge">
<title>&quot;Division&quot;3padre1&#45;&gt;60.0&#45;3</title>
<path fill="none" stroke="black" d="M487.39,-146.11C483.37,-137.62 478.76,-127.87 474.57,-119.04"/>
<polygon fill="black" stroke="black" points="477.69,-117.45 470.25,-109.91 471.37,-120.45 477.69,-117.45"/>
</g>
<!-- 20.0&#45;3 -->
<g id="node12" class="node">
<title>20.0&#45;3</title>
<polygon fill="lightgrey" stroke="black" points="507,-73.5 507,-109.5 561,-109.5 561,-73.5 507,-73.5"/>
<text text-anchor="middle" x="534" y="-87.8" font-family="Times New Roman,serif" font-size="14.00">20.0</text>
</g>
<!-- &quot;Division&quot;3padre1&#45;&gt;20.0&#45;3 -->
<g id="edge8" class="edge">
<title>&quot;Division&quot;3padre1&#45;&gt;20.0&#45;3</title>
<path fill="none" stroke="black" d="M508.61,-146.11C512.63,-137.62 517.24,-127.87 521.43,-119.04"/>
<polygon fill="black" stroke="black" points="524.63,-120.45 525.75,-109.91 518.31,-117.45 524.63,-120.45"/>
</g>
<!-- &quot;Inverso&quot;4hijo21 -->
<g id="node13" class="node">
<title>&quot;Inverso&quot;4hijo21</title>
<polygon fill="#ff0000" stroke="black" points="579.5,-73.5 579.5,-109.5 784.5,-109.5 784.5,-73.5 579.5,-73.5"/>
<text text-anchor="middle" x="682" y="-87.8" font-family="Times New Roman,serif" font-size="14.00">&quot;Inverso&quot; + 0.1111111111111111</text>
</g>
<!-- 9&#45;4 -->
<g id="node14" class="node">
<title>9&#45;4</title>
<polygon fill="lightgrey" stroke="black" points="655,-0.5 655,-36.5 709,-36.5 709,-0.5 655,-0.5"/>
<text text-anchor="middle" x="682" y="-14.8" font-family="Times New Roman,serif" font-size="14.00">9</text>
</g>
<!-- &quot;Inverso&quot;4hijo21&#45;&gt;9&#45;4 -->
<g id="edge9" class="edge">
<title>&quot;Inverso&quot;4hijo21&#45;&gt;9&#45;4</title>
<path fill="none" stroke="black" d="M682,-73.31C682,-65.29 682,-55.55 682,-46.57"/>
<polygon fill="black" stroke="black" points="685.5,-46.53 682,-36.53 678.5,-46.53 685.5,-46.53"/>
</g>
<!-- &quot;Potencia&quot;5hijo -->
<g id="node15" class="node">
<title>&quot;Potencia&quot;5hijo</title>
<polygon fill="#ff0000" stroke="black" points="687,-146.5 687,-192.5 815,-192.5 815,-146.5 687,-146.5"/>
<text text-anchor="middle" x="751" y="-177.3" font-family="Times New Roman,serif" font-size="14.00">&quot;Potencia&quot;</text>
<polyline fill="none" stroke="black" points="687,-169.5 815,-169.5"/>
<text text-anchor="middle" x="751" y="-154.3" font-family="Times New Roman,serif" font-size="14.00">1.080059738892306</text>
</g>
<!-- &quot;Potencia&quot;5hijo&#45;&gt;&quot;Inverso&quot;4hijo21 -->
<g id="edge11" class="edge">
<title>&quot;Potencia&quot;5hijo&#45;&gt;&quot;Inverso&quot;4hijo21</title>
<path fill="none" stroke="black" d="M730.67,-146.11C722.47,-137.08 712.98,-126.62 704.57,-117.36"/>
<polygon fill="black" stroke="black" points="707.12,-114.96 697.81,-109.91 701.94,-119.67 707.12,-114.96"/>
</g>
<!-- 0.1111111111111111 -->
<g id="node16" class="node">
<title>0.1111111111111111</title>
<polygon fill="lightgrey" stroke="black" points="802.5,-73.5 802.5,-109.5 937.5,-109.5 937.5,-73.5 802.5,-73.5"/>
<text text-anchor="middle" x="870" y="-87.8" font-family="Times New Roman,serif" font-size="14.00">0.1111111111111111</text>
</g>
<!-- &quot;Potencia&quot;5hijo&#45;&gt;0.1111111111111111 -->
<g id="edge10" class="edge">
<title>&quot;Potencia&quot;5hijo&#45;&gt;0.1111111111111111</title>
<path fill="none" stroke="black" d="M785.74,-146.31C801.11,-136.5 819.16,-124.97 834.6,-115.11"/>
<polygon fill="black" stroke="black" points="836.81,-117.85 843.36,-109.52 833.04,-111.95 836.81,-117.85"/>
</g>
<!-- &quot;Multiplicacion&quot;5hijo1 -->
<g id="node17" class="node">
<title>&quot;Multiplicacion&quot;5hijo1</title>
<polygon fill="#ff0000" stroke="black" points="918.5,-146.5 918.5,-192.5 1153.5,-192.5 1153.5,-146.5 918.5,-146.5"/>
<text text-anchor="middle" x="1036" y="-177.3" font-family="Times New Roman,serif" font-size="14.00">&quot;Multiplicacion&quot; + 2.160119477784612</text>
<polyline fill="none" stroke="black" points="918.5,-169.5 1153.5,-169.5"/>
<text text-anchor="middle" x="1036" y="-154.3" font-family="Times New Roman,serif" font-size="14.00">2.160119477784612</text>
</g>
<!-- 1.080059738892306&#45;5 -->
<g id="node18" class="node">
<title>1.080059738892306&#45;5</title>
<polygon fill="lightgrey" stroke="black" points="956,-73.5 956,-109.5 1084,-109.5 1084,-73.5 956,-73.5"/>
<text text-anchor="middle" x="1020" y="-87.8" font-family="Times New Roman,serif" font-size="14.00">1.080059738892306</text>
</g>
<!-- &quot;Multiplicacion&quot;5hijo1&#45;&gt;1.080059738892306&#45;5 -->
<g id="edge12" class="edge">
<title>&quot;Multiplicacion&quot;5hijo1&#45;&gt;1.080059738892306&#45;5</title>
<path fill="none" stroke="black" d="M1031.29,-146.11C1029.56,-137.89 1027.58,-128.49 1025.77,-119.89"/>
<polygon fill="black" stroke="black" points="1029.15,-118.98 1023.67,-109.91 1022.3,-120.42 1029.15,-118.98"/>
</g>
<!-- 2.0&#45;5 -->
<g id="node19" class="node">
<title>2.0&#45;5</title>
<polygon fill="lightgrey" stroke="black" points="1102,-73.5 1102,-109.5 1156,-109.5 1156,-73.5 1102,-73.5"/>
<text text-anchor="middle" x="1129" y="-87.8" font-family="Times New Roman,serif" font-size="14.00">2.0</text>
</g>
<!-- &quot;Multiplicacion&quot;5hijo1&#45;&gt;2.0&#45;5 -->
<g id="edge13" class="edge">
<title>&quot;Multiplicacion&quot;5hijo1&#45;&gt;2.0&#45;5</title>
<path fill="none" stroke="black" d="M1063.4,-146.11C1074.98,-136.65 1088.47,-125.62 1100.2,-116.04"/>
<polygon fill="black" stroke="black" points="1102.46,-118.71 1107.99,-109.67 1098.03,-113.29 1102.46,-118.71"/>
</g>
<!-- &quot;Seno&quot;6hijo21 -->
<g id="node20" class="node">
<title>&quot;Seno&quot;6hijo21</title>
<polygon fill="#ff0000" stroke="black" points="1174,-73.5 1174,-109.5 1264,-109.5 1264,-73.5 1174,-73.5"/>
<text text-anchor="middle" x="1219" y="-87.8" font-family="Times New Roman,serif" font-size="14.00">&quot;Seno&quot; + 1.0</text>
</g>
<!-- 90&#45;6 -->
<g id="node21" class="node">
<title>90&#45;6</title>
<polygon fill="lightgrey" stroke="black" points="1192,-0.5 1192,-36.5 1246,-36.5 1246,-0.5 1192,-0.5"/>
<text text-anchor="middle" x="1219" y="-14.8" font-family="Times New Roman,serif" font-size="14.00">90</text>
</g>
<!-- &quot;Seno&quot;6hijo21&#45;&gt;90&#45;6 -->
<g id="edge14" class="edge">
<title>&quot;Seno&quot;6hijo21&#45;&gt;90&#45;6</title>
<path fill="none" stroke="black" d="M1219,-73.31C1219,-65.29 1219,-55.55 1219,-46.57"/>
<polygon fill="black" stroke="black" points="1222.5,-46.53 1219,-36.53 1215.5,-46.53 1222.5,-46.53"/>
</g>
<!-- &quot;Suma&quot;7padre1 -->
<g id="node22" class="node">
<title>&quot;Suma&quot;7padre1</title>
<polygon fill="#ff0000" stroke="black" points="1234,-146.5 1234,-192.5 1294,-192.5 1294,-146.5 1234,-146.5"/>
<text text-anchor="middle" x="1264" y="-177.3" font-family="Times New Roman,serif" font-size="14.00">&quot;Suma&quot;</text>
<polyline fill="none" stroke="black" points="1234,-169.5 1294,-169.5"/>
<text text-anchor="middle" x="1264" y="-154.3" font-family="Times New Roman,serif" font-size="14.00">6.32</text>
</g>
<!-- &quot;Suma&quot;7padre1&#45;&gt;&quot;Seno&quot;6hijo21 -->
<g id="edge15" class="edge">
<title>&quot;Suma&quot;7padre1&#45;&gt;&quot;Seno&quot;6hijo21</title>
<path fill="none" stroke="black" d="M1250.74,-146.11C1245.66,-137.53 1239.82,-127.67 1234.55,-118.76"/>
<polygon fill="black" stroke="black" points="1237.42,-116.73 1229.31,-109.91 1231.39,-120.3 1237.42,-116.73"/>
</g>
<!-- 5.32&#45;7 -->
<g id="node23" class="node">
<title>5.32&#45;7</title>
<polygon fill="lightgrey" stroke="black" points="1282,-73.5 1282,-109.5 1336,-109.5 1336,-73.5 1282,-73.5"/>
<text text-anchor="middle" x="1309" y="-87.8" font-family="Times New Roman,serif" font-size="14.00">5.32</text>
</g>
<!-- &quot;Suma&quot;7padre1&#45;&gt;5.32&#45;7 -->
<g id="edge16" class="edge">
<title>&quot;Suma&quot;7padre1&#45;&gt;5.32&#45;7</title>
<path fill="none" stroke="black" d="M1277.26,-146.11C1282.34,-137.53 1288.18,-127.67 1293.45,-118.76"/>
<polygon fill="black" stroke="black" points="1296.61,-120.3 1298.69,-109.91 1290.58,-116.73 1296.61,-120.3"/>
</g>
</g>
</svg>
